#!OML:ASF X:\für Bonn\!DataBase\2005_08_10_Bjorn_Final\c3d\bjorn.ASF
:FULLY-SPECIFIED
:DEGREES
761
root -0.0130326 1.50217 19.846 -273.64 -1.61203 -529.72
lowerback 1.67213 -1.63946 2.24559
upperback 3.6101 -2.25853 -1.05516
thorax 2.64475 -1.09617 -2.35677
lowerneck -18.1006 -3.23143 0.335962
upperneck 11.9 -4.99296 2.82257
head 6.6507 -2.19158 0.310782
rclavicle -5.56597e-015 -6.75868e-015
rhumerus -50.9697 39.8012 -92.4674
rradius 101.256
rwrist -27.7235
rhand -7.77158 9.26025
rfingers 7.12502
rthumb 18.1286 -19.9149
lclavicle -5.56597e-015 -6.75868e-015
lhumerus -47.0923 -51.1966 92.0632
lradius 103.083
lwrist 34.0629
lhand 5.26952 -369.35
lfingers 7.12502
lthumb 30.627 18.1219
rfemur -1.08728 -18.2727 7.42096
rtibia 24.7796
rfoot 9.69358 -3.75467
rtoes 14.1087
lfemur -8.19777 4.88654 -14.6666
ltibia 28.7448
lfoot 16.4044 -14.7465
ltoes -8.31865
762
root -0.0101747 1.5004 19.8471 -273.68 -1.54506 -529.889
lowerback 1.74033 -1.58866 2.26629
upperback 3.62921 -2.19263 -1.0159
thorax 2.63072 -1.06432 -2.32601
lowerneck -18.1481 -3.24717 0.298938
upperneck 11.9341 -5.01812 2.88283
head 6.67267 -2.1996 0.332164
rclavicle -5.32743e-014 7.10655e-015
rhumerus -51.3823 40.1472 -93.0618
rradius 102.009
rwrist -28.3802
rhand -7.15931 9.28856
rfingers 7.12502
rthumb 18.7176 -19.8309
lclavicle -5.32743e-014 7.10655e-015
lhumerus -47.2719 -51.3585 92.3589
lradius 103.735
lwrist 35.3601
lhand 6.36383 -368.869
lfingers 7.12502
lthumb 31.6699 18.4024
rfemur -1.06255 -18.2639 7.47666
rtibia 24.7703
rfoot 9.52685 -3.84224
rtoes 14.0513
lfemur -8.13692 5.2474 -14.5199
ltibia 28.7601
lfoot 16.2525 -14.5964
ltoes -8.90004
763
root -0.00656562 1.49846 19.8492 -273.705 -1.46071 -530.058
lowerback 1.80039 -1.54609 2.27377
upperback 3.64094 -2.13839 -0.943192
thorax 2.61459 -1.03918 -2.25367
lowerneck -18.1312 -3.25061 0.229956
upperneck 11.8814 -5.01306 2.94233
head 6.65617 -2.19617 0.363611
rclavicle 1.03368e-014 3.13086e-015
rhumerus -51.8176 40.5252 -93.6452
rradius 102.732
rwrist -28.9703
rhand -6.6386 9.32632
rfingers 7.12502
rthumb 19.2184 -19.7441
lclavicle 1.03368e-014 3.13086e-015
lhumerus -47.5138 -51.4831 92.7392
lradius 104.364
lwrist 36.5056
lhand 7.3404 -368.5
lfingers 7.12502
lthumb 32.5996 18.5842
rfemur -1.04053 -18.2344 7.5655
rtibia 24.7515
rfoot 9.34202 -3.96217
rtoes 13.9583
lfemur -8.08289 5.53733 -14.3553
ltibia 28.765
lfoot 15.9745 -14.4438
ltoes -9.60483
764
root -0.002649 1.49769 19.8522 -273.745 -1.39586 -530.279
lowerback 1.85621 -1.47777 2.294
upperback 3.67571 -2.04975 -0.915823
thorax 2.62445 -0.995569 -2.23581
lowerneck -18.1525 -3.2628 0.209051
upperneck 11.8358 -5.04088 3.03627
head 6.6487 -2.20399 0.394031
rclavicle -3.02153e-014 6.5102e-015
rhumerus -52.2242 40.8459 -94.2846
rradius 103.45
rwrist -29.5302
rhand -6.20398 9.27836
rfingers 7.12502
rthumb 19.6363 -19.7499
lclavicle -3.02153e-014 6.5102e-015
lhumerus -47.7328 -51.6896 93.0558
lradius 104.974
lwrist 37.5076
lhand 8.20233 -368.294
lfingers 7.12502
lthumb 33.4194 18.6168
rfemur -1.01891 -18.2551 7.61248
rtibia 24.7421
rfoot 9.21468 -3.9942
rtoes 13.7581
lfemur -7.98037 5.69286 -14.2214
ltibia 28.7504
lfoot 15.596 -14.1377
ltoes -10.0885
765
root 0.00310107 1.49574 19.8549 -273.777 -1.32877 -530.504
lowerback 1.93532 -1.40585 2.31013
upperback 3.67835 -1.95415 -0.890328
thorax 2.58838 -0.948935 -2.21627
lowerneck -18.1106 -3.27447 0.173537
upperneck 11.7756 -5.06431 3.13784
head 6.62659 -2.21076 0.430803
rclavicle 1.11319e-014 -3.926e-015
rhumerus -52.6938 41.1227 -94.9843
rradius 104.12
rwrist -29.9488
rhand -5.75999 9.26388
rfingers 7.12502
rthumb 20.0631 -19.7202
lclavicle 1.11319e-014 -3.926e-015
lhumerus -48.054 -51.9295 93.4527
lradius 105.561
lwrist 38.4186
lhand 8.97355 -368.14
lfingers 7.12502
lthumb 34.1521 18.6101
rfemur -1.00888 -18.1096 7.70752
rtibia 24.7322
rfoot 8.95876 -4.1559
rtoes 13.8177
lfemur -7.88021 5.80288 -14.0831
ltibia 28.7284
lfoot 15.1652 -13.7857
ltoes -10.3028
766
root 0.00934451 1.49436 19.8568 -273.813 -1.29466 -530.73
lowerback 2.00004 -1.33833 2.27981
upperback 3.6983 -1.8656 -0.862263
thorax 2.57926 -0.906804 -2.16902
lowerneck -18.1298 -3.27976 0.16663
upperneck 11.764 -5.07663 3.17464
head 6.62751 -2.21425 0.442124
rclavicle -1.66979e-014 1.04362e-015
rhumerus -53.1427 41.4452 -95.6681
rradius 104.794
rwrist -30.392
rhand -5.32291 9.2753
rfingers 7.12502
rthumb 20.4831 -19.6642
lclavicle -1.66979e-014 1.04362e-015
lhumerus -48.3691 -52.139 93.8751
lradius 106.122
lwrist 39.1449
lhand 9.68609 -368.085
lfingers 7.12502
lthumb 34.8285 18.5108
rfemur -0.995827 -18.0356 7.74812
rtibia 24.7289
rfoot 8.74346 -4.25832
rtoes 13.9352
lfemur -7.75925 6.02292 -13.961
ltibia 28.6969
lfoot 14.7423 -13.5891
ltoes -10.3412
767
root 0.0158152 1.4923 19.8584 -273.854 -1.22922 -530.99
lowerback 2.08386 -1.26208 2.27729
upperback 3.7172 -1.76557 -0.821202
thorax 2.55843 -0.858755 -2.12357
lowerneck -18.144 -3.28942 0.150664
upperneck 11.7276 -5.09262 3.21804
head 6.62004 -2.21989 0.456903
rclavicle 2.06736e-014 1.73937e-015
rhumerus -53.5835 41.751 -96.3574
rradius 105.393
rwrist -30.6908
rhand -4.89601 9.32739
rfingers 7.12502
rthumb 20.8933 -19.5675
lclavicle 2.06736e-014 1.73937e-015
lhumerus -48.6837 -52.362 94.3102
lradius 106.67
lwrist 39.7399
lhand 10.3144 -368.042
lfingers 7.12502
lthumb 35.4245 18.4143
rfemur -0.986622 -18.0396 7.80842
rtibia 24.7278
rfoot 8.6161 -4.24377
rtoes 13.8059
lfemur -7.6077 6.06604 -13.8093
ltibia 28.6561
lfoot 14.337 -13.1165
ltoes -9.74309
768
root 0.022917 1.4897 19.8605 -273.901 -1.17898 -531.245
lowerback 2.18757 -1.17651 2.27313
upperback 3.72885 -1.65175 -0.804584
thorax 2.51887 -0.803654 -2.10194
lowerneck -18.1693 -3.30808 0.175986
upperneck 11.7243 -5.1328 3.25477
head 6.62436 -2.23581 0.459746
rclavicle 9.54166e-015 -5.26779e-015
rhumerus -54.0574 41.9881 -97.0806
rradius 105.993
rwrist -30.9302
rhand -4.4199 9.34947
rfingers 7.12502
rthumb 21.3507 -19.4943
lclavicle 9.54166e-015 -5.26779e-015
lhumerus -49.0706 -52.6463 94.7958
lradius 107.182
lwrist 40.2386
lhand 10.838 -368.056
lfingers 7.12502
lthumb 35.9208 18.2801
rfemur -0.979211 -18.0453 7.84834
rtibia 24.7383
rfoot 8.47941 -4.27719
rtoes 13.9336
lfemur -7.44407 6.0163 -13.6802
ltibia 28.602
lfoot 13.8823 -12.5754
ltoes -8.98535
769
root 0.0313705 1.48604 19.8624 -273.957 -1.12746 -531.51
lowerback 2.30004 -1.09268 2.26633
upperback 3.74253 -1.54025 -0.789602
thorax 2.47631 -0.749884 -2.08062
lowerneck -18.1595 -3.31636 0.204098
upperneck 11.6962 -5.15718 3.2869
head 6.61435 -2.2451 0.463187
rclavicle 1.98785e-014 4.32357e-015
rhumerus -54.5234 42.2251 -97.8138
rradius 106.571
rwrist -31.1306
rhand -3.91946 9.34127
rfingers 7.12502
rthumb 21.8313 -19.4473
lclavicle 1.98785e-014 4.32357e-015
lhumerus -49.4816 -52.9219 95.2748
lradius 107.691
lwrist 40.5817
lhand 11.3616 -368.085
lfingers 7.12502
lthumb 36.4166 18.1281
rfemur -0.971421 -17.9718 7.90558
rtibia 24.7553
rfoot 8.2935 -4.34391
rtoes 14.0375
lfemur -7.26807 5.88349 -13.5437
ltibia 28.5356
lfoot 13.5244 -11.8589
ltoes -7.6098
770
root 0.0397356 1.48088 19.8651 -273.994 -1.0916 -531.804
lowerback 2.41338 -1.00146 2.2391
upperback 3.7528 -1.41897 -0.771298
thorax 2.43067 -0.691808 -2.04472
lowerneck -18.1852 -3.32823 0.227261
upperneck 11.6781 -5.1842 3.31066
head 6.61337 -2.25584 0.463822
rclavicle -1.43125e-014 -8.49804e-015
rhumerus -54.9782 42.4879 -98.5383
rradius 107.095
rwrist -31.2381
rhand -3.45286 9.34757
rfingers 7.12502
rthumb 22.2793 -19.3881
lclavicle -1.43125e-014 -8.49804e-015
lhumerus -49.9073 -53.2113 95.8031
lradius 108.149
lwrist 40.8166
lhand 11.7397 -368.312
lfingers 7.12502
lthumb 36.7744 17.8104
rfemur -1.01134 -17.9653 7.94554
rtibia 24.7819
rfoot 8.17421 -4.34071
rtoes 14.0711
lfemur -7.09986 5.66669 -13.4396
ltibia 28.457
lfoot 13.1436 -11.0265
ltoes -6.19877
771
root 0.048842 1.47447 19.8677 -274.041 -1.03589 -532.075
lowerback 2.55166 -0.914266 2.22604
upperback 3.76085 -1.30288 -0.742761
thorax 2.36828 -0.636465 -2.00602
lowerneck -18.2068 -3.34109 0.243723
upperneck 11.6551 -5.20826 3.32345
head 6.60986 -2.26634 0.462463
rclavicle 2.14687e-014 1.88845e-015
rhumerus -55.4537 42.7551 -99.2476
rradius 107.592
rwrist -31.3841
rhand -3.01879 9.42149
rfingers 7.12502
rthumb 22.6959 -19.2638
lclavicle 2.14687e-014 1.88845e-015
lhumerus -50.3386 -53.5025 96.3484
lradius 108.565
lwrist 40.999
lhand 12.1294 -368.654
lfingers 7.12502
lthumb 37.1431 17.3737
rfemur -1.0396 -18.0117 7.99769
rtibia 24.8124
rfoot 8.10626 -4.30717
rtoes 14.0414
lfemur -6.9325 5.49221 -13.2992
ltibia 28.3775
lfoot 12.8915 -10.2179
ltoes -4.58754
772
root 0.0582554 1.4692 19.8706 -274.088 -0.998231 -532.345
lowerback 2.67309 -0.827778 2.19845
upperback 3.77617 -1.18812 -0.729659
thorax 2.32259 -0.581671 -1.97588
lowerneck -18.2578 -3.35459 0.285925
upperneck 11.6667 -5.24078 3.32846
head 6.62173 -2.27965 0.452763
rclavicle 9.54166e-015 5.41688e-015
rhumerus -55.8929 42.9883 -99.9733
rradius 108.003
rwrist -31.4332
rhand -2.56598 9.54659
rfingers 7.12502
rthumb 23.1304 -19.0849
lclavicle 9.54166e-015 5.41688e-015
lhumerus -50.7977 -53.8255 96.8964
lradius 108.974
lwrist 41.071
lhand 12.3802 -369.01
lfingers 7.12502
lthumb 37.3803 16.9556
rfemur -1.07393 -18.063 8.02291
rtibia 24.8538
rfoot 8.03066 -4.25101
rtoes 14.1856
lfemur -6.76608 5.49192 -13.1593
ltibia 28.2961
lfoot 12.7133 -9.5602
ltoes -3.22155
773
root 0.0679731 1.46561 19.8735 -274.125 -0.96032 -532.57
lowerback 2.7753 -0.755585 2.16378
upperback 3.78446 -1.09233 -0.714864
thorax 2.27944 -0.536285 -1.94041
lowerneck -18.2657 -3.36767 0.323073
upperneck 11.6324 -5.27083 3.34342
head 6.61195 -2.29265 0.448421
rclavicle -1.82882e-014 5.61567e-015
rhumerus -56.3751 43.2472 -100.719
rradius 108.37
rwrist -31.5079
rhand -2.16656 9.73014
rfingers 7.12502
rthumb 23.5136 -18.8527
lclavicle -1.82882e-014 5.61567e-015
lhumerus -51.3024 -54.1431 97.4876
lradius 109.323
lwrist 41.108
lhand 12.6486 -369.238
lfingers 7.12502
lthumb 37.6339 16.6601
rfemur -1.098 -18.1975 8.03838
rtibia 24.8921
rfoot 7.97058 -4.15685
rtoes 14.2337
lfemur -6.62528 5.53501 -13.0167
ltibia 28.2251
lfoot 12.5169 -9.00443
ltoes -2.29392
774
root 0.0778288 1.46303 19.8744 -274.179 -0.942745 -532.79
lowerback 2.87386 -0.6874 2.1077
upperback 3.80381 -1.00289 -0.699922
thorax 2.2496 -0.494583 -1.89314
lowerneck -18.3205 -3.37762 0.344922
upperneck 11.6424 -5.29076 3.33836
head 6.62386 -2.30118 0.440122
rclavicle -1.66979e-014 -1.88845e-015
rhumerus -56.8649 43.537 -101.454
rradius 108.717
rwrist -31.5222
rhand -1.83754 9.86195
rfingers 7.12502
rthumb 23.8292 -18.6801
lclavicle -1.66979e-014 -1.88845e-015
lhumerus -51.8211 -54.4573 98.1029
lradius 109.651
lwrist 41.0978
lhand 12.8773 -369.351
lfingers 7.12502
lthumb 37.8499 16.4886
rfemur -1.09272 -18.3353 8.01347
rtibia 24.9296
rfoot 7.93125 -4.06171
rtoes 14.4358
lfemur -6.45652 5.51929 -12.8944
ltibia 28.1601
lfoot 12.2923 -8.37593
ltoes -1.46686
775
root 0.0882525 1.46121 19.8765 -274.219 -0.908614 -532.999
lowerback 2.94385 -0.611667 2.066
upperback 3.83235 -0.904175 -0.684666
thorax 2.24536 -0.447582 -1.85444
lowerneck -18.3583 -3.40154 0.363487
upperneck 11.6068 -5.33312 3.36498
head 6.61962 -2.31968 0.440651
rclavicle 1.27222e-014 9.93923e-017
rhumerus -57.322 43.7964 -102.154
rradius 109.022
rwrist -31.4841
rhand -1.63626 10.0095
rfingers 7.12502
rthumb 24.0222 -18.5072
lclavicle 1.27222e-014 9.93923e-017
lhumerus -52.336 -54.8282 98.7172
lradius 109.938
lwrist 41.073
lhand 13.039 -369.532
lfingers 7.12502
lthumb 38.0027 16.2668
rfemur -1.09485 -18.4721 8.02111
rtibia 24.9583
rfoot 7.86834 -3.98977
rtoes 14.6364
lfemur -6.3124 5.54862 -12.7505
ltibia 28.1066
lfoot 12.0413 -7.82723
ltoes -0.786609
